# xmcd CD database file
# Copyright (C) 1993-1998 Ti Kan
#
# Track frame offsets:
#	182
#	11287
#	23120
#	35825
#	49710
#	61145
#	72997
#	88612
#	100682
#	111142
#	121215
#	134375
#	153307
#	165465
#	178097
#	191535
#
# Disc length: 2763 seconds
#
# Revision: 1
# Processed by: cddbd v1.4b41PL1 Copyright (c) Steve Scherf et al.
# Submitted via: CDValet v3.01 - Copyright (c) 1997 Greg Leichner
#
DISCID=ca0ac910
DTITLE=Various Artist - Spotlight Blues
DYEAR=1900
DGENRE=
TTITLE0=Boom, Boom, Boom
TTITLE1=Honest I Do
TTITLE2=Dust My Broom
TTITLE3=Baby Let Me Hold Your Hand
TTITLE4=Need Him
TTITLE5=Rooster Blues
TTITLE6=I Put A Spell On You 
TTITLE7=Caldonia
TTITLE8=Blueberry Hill
TTITLE9=Dimples
TTITLE10=She's A Winner 
TTITLE11=When The Sun Goes Down
TTITLE12=Moppers Blues
TTITLE13=Shame, Shame, Shame
TTITLE14=Rollin' and Tublin'
TTITLE15=Polk Salad Annie
EXTD=
EXTT0=
EXTT1=
EXTT2=
EXTT3=
EXTT4=
EXTT5=
EXTT6=
EXTT7=
EXTT8=
EXTT9=
EXTT10=
EXTT11=
EXTT12=
EXTT13=
EXTT14=
EXTT15=
PLAYORDER=
